<svg width="114" height="56" viewBox="0 0 114 56" fill="none" xmlns="http://www.w3.org/2000/svg">
<line x1="15.75" y1="13.25" x2="15.75" y2="42.75" stroke="black" stroke-width="2"/>
<line x1="29.5" y1="29" x2="8.74228e-08" y2="29" stroke="black" stroke-width="2"/>
<path d="M53.004 22H50.292L48.78 17.848H42.132L40.62 22H37.98L43.956 6.16H47.028L53.004 22ZM42.852 15.76H48.06L45.468 8.368L42.852 15.76ZM61.0031 22.24C60.0111 22.24 59.1071 21.992 58.2911 21.496C57.4911 21 56.8591 20.288 56.3951 19.36C55.9311 18.432 55.6991 17.32 55.6991 16.024C55.6991 14.68 55.9471 13.544 56.4431 12.616C56.9391 11.688 57.6031 10.984 58.4351 10.504C59.2671 10.008 60.1791 9.76 61.1711 9.76C62.1951 9.76 63.0591 10.04 63.7631 10.6C64.4671 11.16 64.9391 11.888 65.1791 12.784L64.8911 13.048V4.6H67.4591V22H65.1791L64.9871 18.736L65.3231 18.76C65.2111 19.48 64.9471 20.104 64.5311 20.632C64.1151 21.144 63.5951 21.544 62.9711 21.832C62.3631 22.104 61.7071 22.24 61.0031 22.24ZM61.5551 20.176C62.2431 20.176 62.8351 20 63.3311 19.648C63.8271 19.296 64.2111 18.8 64.4831 18.16C64.7551 17.52 64.8911 16.752 64.8911 15.856C64.8911 15.024 64.7551 14.312 64.4831 13.72C64.2111 13.112 63.8271 12.648 63.3311 12.328C62.8511 12.008 62.2911 11.848 61.6511 11.848C60.5791 11.848 59.7471 12.216 59.1551 12.952C58.5631 13.688 58.2671 14.704 58.2671 16C58.2671 17.296 58.5551 18.32 59.1311 19.072C59.7071 19.808 60.5151 20.176 61.5551 20.176ZM77.25 22.24C76.258 22.24 75.354 21.992 74.538 21.496C73.738 21 73.106 20.288 72.642 19.36C72.178 18.432 71.946 17.32 71.946 16.024C71.946 14.68 72.194 13.544 72.69 12.616C73.186 11.688 73.85 10.984 74.682 10.504C75.514 10.008 76.426 9.76 77.418 9.76C78.442 9.76 79.306 10.04 80.01 10.6C80.714 11.16 81.186 11.888 81.426 12.784L81.138 13.048V4.6H83.706V22H81.426L81.234 18.736L81.57 18.76C81.458 19.48 81.194 20.104 80.778 20.632C80.362 21.144 79.842 21.544 79.218 21.832C78.61 22.104 77.954 22.24 77.25 22.24ZM77.802 20.176C78.49 20.176 79.082 20 79.578 19.648C80.074 19.296 80.458 18.8 80.73 18.16C81.002 17.52 81.138 16.752 81.138 15.856C81.138 15.024 81.002 14.312 80.73 13.72C80.458 13.112 80.074 12.648 79.578 12.328C79.098 12.008 78.538 11.848 77.898 11.848C76.826 11.848 75.994 12.216 75.402 12.952C74.81 13.688 74.514 14.704 74.514 16C74.514 17.296 74.802 18.32 75.378 19.072C75.954 19.808 76.762 20.176 77.802 20.176ZM42.42 34.16V50H39.852V34.16H42.42ZM47.8639 50V38H50.1439L50.2639 40.016C50.6799 39.248 51.2319 38.68 51.9199 38.312C52.6239 37.944 53.3679 37.76 54.1519 37.76C55.0159 37.76 55.8079 37.96 56.5279 38.36C57.2639 38.744 57.8159 39.328 58.1839 40.112C58.4399 39.584 58.7919 39.144 59.2399 38.792C59.6879 38.44 60.1839 38.184 60.7279 38.024C61.2719 37.848 61.8079 37.76 62.3359 37.76C63.1039 37.76 63.8239 37.92 64.4959 38.24C65.1679 38.56 65.7119 39.048 66.1279 39.704C66.5439 40.36 66.7519 41.2 66.7519 42.224V50H64.1839V42.632C64.1839 41.656 63.9519 40.952 63.4879 40.52C63.0239 40.088 62.4319 39.872 61.7119 39.872C61.1519 39.872 60.6319 40.008 60.1519 40.28C59.6879 40.552 59.3119 40.96 59.0239 41.504C58.7359 42.032 58.5919 42.688 58.5919 43.472V50H56.0239V42.632C56.0239 41.656 55.7919 40.952 55.3279 40.52C54.8639 40.088 54.2719 39.872 53.5519 39.872C53.0719 39.872 52.5919 40 52.1119 40.256C51.6319 40.512 51.2319 40.912 50.9119 41.456C50.5919 42 50.4319 42.72 50.4319 43.616V50H47.8639ZM78.7811 42.296C78.7811 41.496 78.5571 40.88 78.1091 40.448C77.6771 40 77.0771 39.776 76.3091 39.776C75.5891 39.776 74.9731 39.944 74.4611 40.28C73.9491 40.616 73.5731 41.16 73.3331 41.912L71.1731 41C71.4771 40.024 72.0691 39.24 72.9491 38.648C73.8451 38.056 74.9971 37.76 76.4051 37.76C77.3651 37.76 78.2131 37.92 78.9491 38.24C79.6851 38.544 80.2611 39.008 80.6771 39.632C81.1091 40.256 81.3251 41.056 81.3251 42.032V47.384C81.3251 47.976 81.6211 48.272 82.2131 48.272C82.5011 48.272 82.7811 48.232 83.0531 48.152L82.9091 49.928C82.5411 50.104 82.0771 50.192 81.5171 50.192C81.0051 50.192 80.5411 50.104 80.1251 49.928C79.7251 49.736 79.4051 49.456 79.1651 49.088C78.9411 48.704 78.8291 48.232 78.8291 47.672V47.504L79.3571 47.48C79.2131 48.104 78.9171 48.624 78.4691 49.04C78.0211 49.44 77.5011 49.744 76.9091 49.952C76.3171 50.144 75.7171 50.24 75.1091 50.24C74.3571 50.24 73.6771 50.12 73.0691 49.88C72.4771 49.64 72.0051 49.28 71.6531 48.8C71.3171 48.304 71.1491 47.696 71.1491 46.976C71.1491 46.08 71.4371 45.344 72.0131 44.768C72.6051 44.192 73.4371 43.8 74.5091 43.592L79.1651 42.68L79.1411 44.48L75.7571 45.176C75.0851 45.304 74.5811 45.488 74.2451 45.728C73.9091 45.968 73.7411 46.32 73.7411 46.784C73.7411 47.232 73.9091 47.592 74.2451 47.864C74.5971 48.12 75.0611 48.248 75.6371 48.248C76.0371 48.248 76.4211 48.2 76.7891 48.104C77.1731 48.008 77.5171 47.856 77.8211 47.648C78.1251 47.424 78.3571 47.144 78.5171 46.808C78.6931 46.456 78.7811 46.04 78.7811 45.56V42.296ZM97.3395 35.48L97.7475 37.496C97.6995 37.496 97.6515 37.496 97.6035 37.496C97.5555 37.48 97.5075 37.472 97.4595 37.472C96.6915 37.472 96.1075 37.64 95.7075 37.976C95.3075 38.296 95.1075 38.768 95.1075 39.392L93.8595 38.816C93.8595 38.176 93.9955 37.608 94.2675 37.112C94.5395 36.6 94.9235 36.2 95.4195 35.912C95.9315 35.624 96.5075 35.48 97.1475 35.48C97.1795 35.48 97.2115 35.48 97.2435 35.48C97.2755 35.48 97.3075 35.48 97.3395 35.48ZM93.5475 48.128C94.7635 48.128 95.7075 48.4 96.3795 48.944C97.0515 49.472 97.3875 50.208 97.3875 51.152C97.3875 51.984 97.1235 52.696 96.5955 53.288C96.0675 53.896 95.3475 54.36 94.4355 54.68C93.5395 55 92.5075 55.16 91.3395 55.16C89.3715 55.16 87.9155 54.856 86.9715 54.248C86.0275 53.64 85.5555 52.88 85.5555 51.968C85.5555 51.328 85.7795 50.768 86.2275 50.288C86.6915 49.808 87.4675 49.536 88.5555 49.472L88.4115 49.856C87.7395 49.712 87.1955 49.456 86.7795 49.088C86.3795 48.704 86.1795 48.168 86.1795 47.48C86.1795 46.792 86.4435 46.208 86.9715 45.728C87.4995 45.248 88.2435 44.968 89.2035 44.888L90.5475 45.536H90.2595C89.5235 45.6 89.0035 45.768 88.6995 46.04C88.3955 46.312 88.2435 46.616 88.2435 46.952C88.2435 47.352 88.3875 47.648 88.6755 47.84C88.9795 48.032 89.4035 48.128 89.9475 48.128H93.5475ZM91.3395 53.24C92.2195 53.24 92.9395 53.152 93.4995 52.976C94.0755 52.816 94.4995 52.6 94.7715 52.328C95.0595 52.072 95.2035 51.784 95.2035 51.464C95.2035 51.096 95.0515 50.8 94.7475 50.576C94.4595 50.352 93.9315 50.24 93.1635 50.24H89.2995C88.8515 50.24 88.4755 50.352 88.1715 50.576C87.8675 50.816 87.7155 51.136 87.7155 51.536C87.7155 52.064 88.0355 52.48 88.6755 52.784C89.3155 53.088 90.2035 53.24 91.3395 53.24ZM91.2435 37.76C92.2995 37.76 93.2115 37.928 93.9795 38.264C94.7635 38.6 95.3635 39.072 95.7795 39.68C96.2115 40.288 96.4275 41 96.4275 41.816C96.4275 42.632 96.2115 43.344 95.7795 43.952C95.3635 44.56 94.7635 45.032 93.9795 45.368C93.2115 45.704 92.2995 45.872 91.2435 45.872C89.5795 45.872 88.2995 45.504 87.4035 44.768C86.5235 44.016 86.0835 43.032 86.0835 41.816C86.0835 41 86.2995 40.288 86.7315 39.68C87.1635 39.072 87.7635 38.6 88.5315 38.264C89.3155 37.928 90.2195 37.76 91.2435 37.76ZM91.2435 39.56C90.5075 39.56 89.8915 39.768 89.3955 40.184C88.9155 40.584 88.6755 41.128 88.6755 41.816C88.6755 42.504 88.9155 43.056 89.3955 43.472C89.8915 43.888 90.5075 44.096 91.2435 44.096C91.9955 44.096 92.6115 43.888 93.0915 43.472C93.5875 43.056 93.8355 42.504 93.8355 41.816C93.8355 41.128 93.5875 40.584 93.0915 40.184C92.6115 39.768 91.9955 39.56 91.2435 39.56ZM106.22 50.24C105.02 50.24 103.964 49.992 103.052 49.496C102.14 49 101.428 48.288 100.916 47.36C100.42 46.416 100.172 45.296 100.172 44C100.172 42.704 100.42 41.592 100.916 40.664C101.428 39.72 102.132 39 103.028 38.504C103.924 38.008 104.94 37.76 106.076 37.76C107.244 37.76 108.236 38 109.052 38.48C109.868 38.96 110.492 39.616 110.924 40.448C111.356 41.28 111.572 42.224 111.572 43.28C111.572 43.568 111.564 43.84 111.548 44.096C111.532 44.352 111.508 44.576 111.476 44.768H101.828V42.8H110.348L109.076 43.184C109.076 42.096 108.804 41.264 108.26 40.688C107.716 40.096 106.972 39.8 106.028 39.8C105.34 39.8 104.74 39.96 104.228 40.28C103.716 40.6 103.324 41.08 103.052 41.72C102.78 42.344 102.644 43.112 102.644 44.024C102.644 44.92 102.788 45.68 103.076 46.304C103.364 46.928 103.772 47.4 104.3 47.72C104.828 48.04 105.452 48.2 106.172 48.2C106.972 48.2 107.62 48.048 108.116 47.744C108.612 47.44 109.004 47.016 109.292 46.472L111.332 47.432C111.044 48.008 110.652 48.512 110.156 48.944C109.676 49.36 109.1 49.68 108.428 49.904C107.756 50.128 107.02 50.24 106.22 50.24Z" fill="black"/>
</svg>
