<svg width="39" height="27" viewBox="0 0 39 27" fill="none" xmlns="http://www.w3.org/2000/svg">
<path d="M1.18271 12.55L10.5577 1.3C10.734 1.08835 10.9548 0.918135 11.2043 0.80147C11.4538 0.684806 11.726 0.624555 12.0015 0.625002H32.6265C34.1183 0.625002 35.549 1.21763 36.6039 2.27253C37.6588 3.32742 38.2515 4.75816 38.2515 6.25V21.25C38.2515 22.7418 37.6588 24.1726 36.6039 25.2275C35.549 26.2824 34.1183 26.875 32.6265 26.875H12.0015C11.726 26.8754 11.4538 26.8152 11.2043 26.6985C10.9548 26.5819 10.734 26.4117 10.5577 26.2L1.18271 14.95C0.902088 14.6131 0.748417 14.1885 0.748417 13.75C0.748417 13.3115 0.902088 12.8869 1.18271 12.55ZM12.8827 23.125H32.6265C33.1237 23.125 33.6007 22.9275 33.9523 22.5758C34.3039 22.2242 34.5015 21.7473 34.5015 21.25V6.25C34.5015 5.75272 34.3039 5.27581 33.9523 4.92418C33.6007 4.57255 33.1237 4.375 32.6265 4.375H12.8827L5.06396 13.75L12.8827 23.125ZM18.1702 8.66875C18.3445 8.49301 18.5519 8.35352 18.7804 8.25833C19.0089 8.16314 19.2539 8.11413 19.5015 8.11413C19.749 8.11413 19.9941 8.16314 20.2225 8.25833C20.451 8.35352 20.6584 8.49301 20.8327 8.66875L23.2515 11.1063L25.6702 8.66875C26.0233 8.31568 26.5021 8.11733 27.0015 8.11733C27.5008 8.11733 27.9796 8.31568 28.3327 8.66875C28.6858 9.02182 28.8841 9.50069 28.8841 10C28.8841 10.2472 28.8354 10.4921 28.7408 10.7205C28.6462 10.9489 28.5075 11.1564 28.3327 11.3313L25.8952 13.75L28.3327 16.1688C28.5085 16.3431 28.6479 16.5504 28.7431 16.7789C28.8383 17.0074 28.8873 17.2525 28.8873 17.5C28.8873 17.7475 28.8383 17.9926 28.7431 18.2211C28.6479 18.4496 28.5085 18.6569 28.3327 18.8313C28.1584 19.007 27.951 19.1465 27.7225 19.2417C27.4941 19.3369 27.249 19.3859 27.0015 19.3859C26.7539 19.3859 26.5089 19.3369 26.2804 19.2417C26.0519 19.1465 25.8445 19.007 25.6702 18.8313L23.2515 16.3938L20.8327 18.8313C20.6584 19.007 20.451 19.1465 20.2225 19.2417C19.9941 19.3369 19.749 19.3859 19.5015 19.3859C19.2539 19.3859 19.0089 19.3369 18.7804 19.2417C18.5519 19.1465 18.3445 19.007 18.1702 18.8313C17.9945 18.6569 17.855 18.4496 17.7598 18.2211C17.6646 17.9926 17.6156 17.7475 17.6156 17.5C17.6156 17.2525 17.6646 17.0074 17.7598 16.7789C17.855 16.5504 17.9945 16.3431 18.1702 16.1688L20.6077 13.75L18.1702 11.3313C17.9945 11.1569 17.855 10.9496 17.7598 10.7211C17.6646 10.4926 17.6156 10.2475 17.6156 10C17.6156 9.75248 17.6646 9.50741 17.7598 9.27892C17.855 9.05043 17.9945 8.84306 18.1702 8.66875Z" fill="white" fill-opacity="0.8"/>
</svg>
