<svg width="36" height="36" viewBox="0 0 36 36" fill="none" xmlns="http://www.w3.org/2000/svg">
<path d="M27.2108 32.43C25.8908 32.82 24.3308 33 22.5008 33H13.5008C11.6708 33 10.1108 32.82 8.79077 32.43C9.12077 28.53 13.1258 25.455 18.0008 25.455C22.8758 25.455 26.8808 28.53 27.2108 32.43Z" stroke="#292D32" stroke-width="1.5" stroke-linecap="round" stroke-linejoin="round"/>
<path d="M22.5 3H13.5C6 3 3 6 3 13.5V22.5C3 28.17 4.71 31.275 8.79 32.43C9.12 28.53 13.125 25.455 18 25.455C22.875 25.455 26.88 28.53 27.21 32.43C31.29 31.275 33 28.17 33 22.5V13.5C33 6 30 3 22.5 3ZM18 21.255C15.03 21.255 12.63 18.84 12.63 15.87C12.63 12.9 15.03 10.5 18 10.5C20.97 10.5 23.37 12.9 23.37 15.87C23.37 18.84 20.97 21.255 18 21.255Z" stroke="#292D32" stroke-width="1.5" stroke-linecap="round" stroke-linejoin="round"/>
<path d="M23.3701 15.87C23.3701 18.84 20.9701 21.255 18.0001 21.255C15.0301 21.255 12.6301 18.84 12.6301 15.87C12.6301 12.9 15.0301 10.5 18.0001 10.5C20.9701 10.5 23.3701 12.9 23.3701 15.87Z" stroke="#292D32" stroke-width="1.5" stroke-linecap="round" stroke-linejoin="round"/>
</svg>
